ISO-10303-21;
HEADER;
FILE_DESCRIPTION(('Shape Data from monstertruck'), '2;1');
FILE_NAME('crawler-part.step', '1970-01-01 00:00:00', ('Crawler'), ('Crawler'), 'monstertruck', 'Crawler', '');
FILE_SCHEMA(('AUTOMOTIVE_DESIGN'));
ENDSEC;
DATA;
#1 = APPLICATION_PROTOCOL_DEFINITION('international standard', 'automotive_design', 2000, #2);
#2 = APPLICATION_CONTEXT('core data for automotive mechanical design processes');
#3 = SHAPE_DEFINITION_REPRESENTATION(#4, #10);
#4 = PRODUCT_DEFINITION_SHAPE('','', #5);
#5 = PRODUCT_DEFINITION('design','', #6, #9);
#6 = PRODUCT_DEFINITION_FORMATION('','', #7);
#7 = PRODUCT('','','', (#8));
#8 = PRODUCT_CONTEXT('', #2, 'mechanical');
#9 = PRODUCT_DEFINITION_CONTEXT('part definition', #2, 'design');
#10 = SHAPE_REPRESENTATION('', (#16), #11);
#11 = (
    GEOMETRIC_REPRESENTATION_CONTEXT(3)
    GLOBAL_UNCERTAINTY_ASSIGNED_CONTEXT((#15))
    GLOBAL_UNIT_ASSIGNED_CONTEXT((#12, #13, #14))
    REPRESENTATION_CONTEXT('Context #1', '3D Context with UNIT and UNCERTAINTY')
);
#12 = ( LENGTH_UNIT() NAMED_UNIT(*) SI_UNIT(.MILLI.,.METRE.) );
#13 = ( NAMED_UNIT(*) PLANE_ANGLE_UNIT() SI_UNIT($,.RADIAN.) );
#14 = ( NAMED_UNIT(*) SI_UNIT($,.STERADIAN.) SOLID_ANGLE_UNIT() );
#15 = UNCERTAINTY_MEASURE_WITH_UNIT(LENGTH_MEASURE(1.0E-6), #12, 'distance_accuracy_value','confusion accuracy');
#16 = MANIFOLD_SOLID_BREP('', #17);
#17 = CLOSED_SHELL('', (#18, #25, #32, #39, #46, #53));
#18 = ADVANCED_FACE('', (#19), #80, .F.);
#19 = FACE_BOUND('', #20, .T.);
#20 = EDGE_LOOP('', (#21, #22, #23, #24));
#21 = ORIENTED_EDGE('', *, *, #60, .T.);
#22 = ORIENTED_EDGE('', *, *, #61, .T.);
#23 = ORIENTED_EDGE('', *, *, #62, .F.);
#24 = ORIENTED_EDGE('', *, *, #63, .F.);
#25 = ADVANCED_FACE('', (#26), #85, .T.);
#26 = FACE_BOUND('', #27, .T.);
#27 = EDGE_LOOP('', (#28, #29, #30, #31));
#28 = ORIENTED_EDGE('', *, *, #60, .T.);
#29 = ORIENTED_EDGE('', *, *, #64, .T.);
#30 = ORIENTED_EDGE('', *, *, #65, .F.);
#31 = ORIENTED_EDGE('', *, *, #66, .F.);
#32 = ADVANCED_FACE('', (#33), #90, .T.);
#33 = FACE_BOUND('', #34, .T.);
#34 = EDGE_LOOP('', (#35, #36, #37, #38));
#35 = ORIENTED_EDGE('', *, *, #61, .T.);
#36 = ORIENTED_EDGE('', *, *, #67, .T.);
#37 = ORIENTED_EDGE('', *, *, #68, .F.);
#38 = ORIENTED_EDGE('', *, *, #64, .F.);
#39 = ADVANCED_FACE('', (#40), #95, .F.);
#40 = FACE_BOUND('', #41, .T.);
#41 = EDGE_LOOP('', (#42, #43, #44, #45));
#42 = ORIENTED_EDGE('', *, *, #67, .T.);
#43 = ORIENTED_EDGE('', *, *, #69, .F.);
#44 = ORIENTED_EDGE('', *, *, #70, .F.);
#45 = ORIENTED_EDGE('', *, *, #62, .T.);
#46 = ADVANCED_FACE('', (#47), #100, .F.);
#47 = FACE_BOUND('', #48, .T.);
#48 = EDGE_LOOP('', (#49, #50, #51, #52));
#49 = ORIENTED_EDGE('', *, *, #70, .T.);
#50 = ORIENTED_EDGE('', *, *, #71, .F.);
#51 = ORIENTED_EDGE('', *, *, #66, .F.);
#52 = ORIENTED_EDGE('', *, *, #63, .T.);
#53 = ADVANCED_FACE('', (#54), #105, .T.);
#54 = FACE_BOUND('', #55, .T.);
#55 = EDGE_LOOP('', (#56, #57, #58, #59));
#56 = ORIENTED_EDGE('', *, *, #65, .T.);
#57 = ORIENTED_EDGE('', *, *, #68, .T.);
#58 = ORIENTED_EDGE('', *, *, #69, .F.);
#59 = ORIENTED_EDGE('', *, *, #71, .F.);
#60 = EDGE_CURVE('', #72, #73, #110, .T.);
#61 = EDGE_CURVE('', #73, #74, #139, .T.);
#62 = EDGE_CURVE('', #75, #74, #168, .T.);
#63 = EDGE_CURVE('', #72, #75, #197, .T.);
#64 = EDGE_CURVE('', #73, #76, #226, .T.);
#65 = EDGE_CURVE('', #77, #76, #255, .T.);
#66 = EDGE_CURVE('', #72, #77, #284, .T.);
#67 = EDGE_CURVE('', #74, #78, #313, .T.);
#68 = EDGE_CURVE('', #76, #78, #342, .T.);
#69 = EDGE_CURVE('', #79, #78, #371, .T.);
#70 = EDGE_CURVE('', #75, #79, #400, .T.);
#71 = EDGE_CURVE('', #77, #79, #429, .T.);
#72 = VERTEX_POINT('', #458);
#73 = VERTEX_POINT('', #459);
#74 = VERTEX_POINT('', #460);
#75 = VERTEX_POINT('', #461);
#76 = VERTEX_POINT('', #462);
#77 = VERTEX_POINT('', #463);
#78 = VERTEX_POINT('', #464);
#79 = VERTEX_POINT('', #465);
#80 = PLANE('', #81);
#81 = AXIS2_PLACEMENT_3D('', #82, #83, #84);
#82 = CARTESIAN_POINT('', (0.0, 0.0, 0.0));
#83 = DIRECTION('', (0.0, 0.0, 1.0));
#84 = DIRECTION('', (1.0, 0.0, 0.0));
#85 = PLANE('', #86);
#86 = AXIS2_PLACEMENT_3D('', #87, #88, #89);
#87 = CARTESIAN_POINT('', (0.0, 0.0, 0.0));
#88 = DIRECTION('', (0.0, -1.0, 0.0));
#89 = DIRECTION('', (1.0, 0.0, 0.0));
#90 = PLANE('', #91);
#91 = AXIS2_PLACEMENT_3D('', #92, #93, #94);
#92 = CARTESIAN_POINT('', (10.0, 0.0, 0.0));
#93 = DIRECTION('', (1.0, 0.0, 0.0));
#94 = DIRECTION('', (0.0, 1.0, 0.0));
#95 = PLANE('', #96);
#96 = AXIS2_PLACEMENT_3D('', #97, #98, #99);
#97 = CARTESIAN_POINT('', (0.0, 10.0, 0.0));
#98 = DIRECTION('', (0.0, -1.0, 0.0));
#99 = DIRECTION('', (1.0, 0.0, 0.0));
#100 = PLANE('', #101);
#101 = AXIS2_PLACEMENT_3D('', #102, #103, #104);
#102 = CARTESIAN_POINT('', (0.0, 0.0, 0.0));
#103 = DIRECTION('', (1.0, 0.0, 0.0));
#104 = DIRECTION('', (0.0, 1.0, 0.0));
#105 = PLANE('', #106);
#106 = AXIS2_PLACEMENT_3D('', #107, #108, #109);
#107 = CARTESIAN_POINT('', (0.0, 0.0, 10.0));
#108 = DIRECTION('', (0.0, 0.0, 1.0));
#109 = DIRECTION('', (1.0, 0.0, 0.0));
#110 = SURFACE_CURVE('', #111, (#115, #127), .CURVE_3D.);
#111 = LINE('', #112, #113);
#112 = CARTESIAN_POINT('', (0.0, 0.0, 0.0));
#113 = VECTOR('', #114, 10.0);
#114 = DIRECTION('', (1.0, 0.0, 0.0));
#115 = PCURVE('', #116, #121);
#116 = PLANE('', #117);
#117 = AXIS2_PLACEMENT_3D('', #118, #119, #120);
#118 = CARTESIAN_POINT('', (0.0, 0.0, 0.0));
#119 = DIRECTION('', (0.0, 0.0, 1.0));
#120 = DIRECTION('', (1.0, 0.0, 0.0));
#121 = DEFINITIONAL_REPRESENTATION('', (#123), #122);
#122 = (
    GEOMETRIC_REPRESENTATION_CONTEXT(2)
    PARAMETRIC_REPRESENTATION_CONTEXT()
    REPRESENTATION_CONTEXT('2D SPACE', '')
);
#123 = LINE('', #124, #125);
#124 = CARTESIAN_POINT('', (0.0, 0.0));
#125 = VECTOR('', #126, 1.0);
#126 = DIRECTION('', (1.0, 0.0));
#127 = PCURVE('', #128, #133);
#128 = PLANE('', #129);
#129 = AXIS2_PLACEMENT_3D('', #130, #131, #132);
#130 = CARTESIAN_POINT('', (0.0, 0.0, 0.0));
#131 = DIRECTION('', (0.0, -1.0, 0.0));
#132 = DIRECTION('', (1.0, 0.0, 0.0));
#133 = DEFINITIONAL_REPRESENTATION('', (#135), #134);
#134 = (
    GEOMETRIC_REPRESENTATION_CONTEXT(2)
    PARAMETRIC_REPRESENTATION_CONTEXT()
    REPRESENTATION_CONTEXT('2D SPACE', '')
);
#135 = LINE('', #136, #137);
#136 = CARTESIAN_POINT('', (0.0, 0.0));
#137 = VECTOR('', #138, 1.0);
#138 = DIRECTION('', (1.0, 0.0));
#139 = SURFACE_CURVE('', #140, (#144, #156), .CURVE_3D.);
#140 = LINE('', #141, #142);
#141 = CARTESIAN_POINT('', (10.0, 0.0, 0.0));
#142 = VECTOR('', #143, 10.0);
#143 = DIRECTION('', (0.0, 1.0, 0.0));
#144 = PCURVE('', #145, #150);
#145 = PLANE('', #146);
#146 = AXIS2_PLACEMENT_3D('', #147, #148, #149);
#147 = CARTESIAN_POINT('', (0.0, 0.0, 0.0));
#148 = DIRECTION('', (0.0, 0.0, 1.0));
#149 = DIRECTION('', (1.0, 0.0, 0.0));
#150 = DEFINITIONAL_REPRESENTATION('', (#152), #151);
#151 = (
    GEOMETRIC_REPRESENTATION_CONTEXT(2)
    PARAMETRIC_REPRESENTATION_CONTEXT()
    REPRESENTATION_CONTEXT('2D SPACE', '')
);
#152 = LINE('', #153, #154);
#153 = CARTESIAN_POINT('', (1.0, 0.0));
#154 = VECTOR('', #155, 1.0);
#155 = DIRECTION('', (0.0, 1.0));
#156 = PCURVE('', #157, #162);
#157 = PLANE('', #158);
#158 = AXIS2_PLACEMENT_3D('', #159, #160, #161);
#159 = CARTESIAN_POINT('', (10.0, 0.0, 0.0));
#160 = DIRECTION('', (1.0, 0.0, 0.0));
#161 = DIRECTION('', (0.0, 1.0, 0.0));
#162 = DEFINITIONAL_REPRESENTATION('', (#164), #163);
#163 = (
    GEOMETRIC_REPRESENTATION_CONTEXT(2)
    PARAMETRIC_REPRESENTATION_CONTEXT()
    REPRESENTATION_CONTEXT('2D SPACE', '')
);
#164 = LINE('', #165, #166);
#165 = CARTESIAN_POINT('', (0.0, 0.0));
#166 = VECTOR('', #167, 1.0);
#167 = DIRECTION('', (1.0, 0.0));
#168 = SURFACE_CURVE('', #169, (#173, #185), .CURVE_3D.);
#169 = LINE('', #170, #171);
#170 = CARTESIAN_POINT('', (0.0, 10.0, 0.0));
#171 = VECTOR('', #172, 10.0);
#172 = DIRECTION('', (1.0, 0.0, 0.0));
#173 = PCURVE('', #174, #179);
#174 = PLANE('', #175);
#175 = AXIS2_PLACEMENT_3D('', #176, #177, #178);
#176 = CARTESIAN_POINT('', (0.0, 0.0, 0.0));
#177 = DIRECTION('', (0.0, 0.0, 1.0));
#178 = DIRECTION('', (1.0, 0.0, 0.0));
#179 = DEFINITIONAL_REPRESENTATION('', (#181), #180);
#180 = (
    GEOMETRIC_REPRESENTATION_CONTEXT(2)
    PARAMETRIC_REPRESENTATION_CONTEXT()
    REPRESENTATION_CONTEXT('2D SPACE', '')
);
#181 = LINE('', #182, #183);
#182 = CARTESIAN_POINT('', (0.0, 1.0));
#183 = VECTOR('', #184, 1.0);
#184 = DIRECTION('', (1.0, 0.0));
#185 = PCURVE('', #186, #191);
#186 = PLANE('', #187);
#187 = AXIS2_PLACEMENT_3D('', #188, #189, #190);
#188 = CARTESIAN_POINT('', (0.0, 10.0, 0.0));
#189 = DIRECTION('', (0.0, -1.0, 0.0));
#190 = DIRECTION('', (1.0, 0.0, 0.0));
#191 = DEFINITIONAL_REPRESENTATION('', (#193), #192);
#192 = (
    GEOMETRIC_REPRESENTATION_CONTEXT(2)
    PARAMETRIC_REPRESENTATION_CONTEXT()
    REPRESENTATION_CONTEXT('2D SPACE', '')
);
#193 = LINE('', #194, #195);
#194 = CARTESIAN_POINT('', (0.0, 0.0));
#195 = VECTOR('', #196, 1.0);
#196 = DIRECTION('', (1.0, 0.0));
#197 = SURFACE_CURVE('', #198, (#202, #214), .CURVE_3D.);
#198 = LINE('', #199, #200);
#199 = CARTESIAN_POINT('', (0.0, 0.0, 0.0));
#200 = VECTOR('', #201, 10.0);
#201 = DIRECTION('', (0.0, 1.0, 0.0));
#202 = PCURVE('', #203, #208);
#203 = PLANE('', #204);
#204 = AXIS2_PLACEMENT_3D('', #205, #206, #207);
#205 = CARTESIAN_POINT('', (0.0, 0.0, 0.0));
#206 = DIRECTION('', (0.0, 0.0, 1.0));
#207 = DIRECTION('', (1.0, 0.0, 0.0));
#208 = DEFINITIONAL_REPRESENTATION('', (#210), #209);
#209 = (
    GEOMETRIC_REPRESENTATION_CONTEXT(2)
    PARAMETRIC_REPRESENTATION_CONTEXT()
    REPRESENTATION_CONTEXT('2D SPACE', '')
);
#210 = LINE('', #211, #212);
#211 = CARTESIAN_POINT('', (0.0, 0.0));
#212 = VECTOR('', #213, 1.0);
#213 = DIRECTION('', (0.0, 1.0));
#214 = PCURVE('', #215, #220);
#215 = PLANE('', #216);
#216 = AXIS2_PLACEMENT_3D('', #217, #218, #219);
#217 = CARTESIAN_POINT('', (0.0, 0.0, 0.0));
#218 = DIRECTION('', (1.0, 0.0, 0.0));
#219 = DIRECTION('', (0.0, 1.0, 0.0));
#220 = DEFINITIONAL_REPRESENTATION('', (#222), #221);
#221 = (
    GEOMETRIC_REPRESENTATION_CONTEXT(2)
    PARAMETRIC_REPRESENTATION_CONTEXT()
    REPRESENTATION_CONTEXT('2D SPACE', '')
);
#222 = LINE('', #223, #224);
#223 = CARTESIAN_POINT('', (0.0, 0.0));
#224 = VECTOR('', #225, 1.0);
#225 = DIRECTION('', (1.0, 0.0));
#226 = SURFACE_CURVE('', #227, (#231, #243), .CURVE_3D.);
#227 = LINE('', #228, #229);
#228 = CARTESIAN_POINT('', (10.0, 0.0, 0.0));
#229 = VECTOR('', #230, 10.0);
#230 = DIRECTION('', (0.0, 0.0, 1.0));
#231 = PCURVE('', #232, #237);
#232 = PLANE('', #233);
#233 = AXIS2_PLACEMENT_3D('', #234, #235, #236);
#234 = CARTESIAN_POINT('', (0.0, 0.0, 0.0));
#235 = DIRECTION('', (0.0, -1.0, 0.0));
#236 = DIRECTION('', (1.0, 0.0, 0.0));
#237 = DEFINITIONAL_REPRESENTATION('', (#239), #238);
#238 = (
    GEOMETRIC_REPRESENTATION_CONTEXT(2)
    PARAMETRIC_REPRESENTATION_CONTEXT()
    REPRESENTATION_CONTEXT('2D SPACE', '')
);
#239 = LINE('', #240, #241);
#240 = CARTESIAN_POINT('', (1.0, 0.0));
#241 = VECTOR('', #242, 1.0);
#242 = DIRECTION('', (0.0, 1.0));
#243 = PCURVE('', #244, #249);
#244 = PLANE('', #245);
#245 = AXIS2_PLACEMENT_3D('', #246, #247, #248);
#246 = CARTESIAN_POINT('', (10.0, 0.0, 0.0));
#247 = DIRECTION('', (1.0, 0.0, 0.0));
#248 = DIRECTION('', (0.0, 1.0, 0.0));
#249 = DEFINITIONAL_REPRESENTATION('', (#251), #250);
#250 = (
    GEOMETRIC_REPRESENTATION_CONTEXT(2)
    PARAMETRIC_REPRESENTATION_CONTEXT()
    REPRESENTATION_CONTEXT('2D SPACE', '')
);
#251 = LINE('', #252, #253);
#252 = CARTESIAN_POINT('', (0.0, 0.0));
#253 = VECTOR('', #254, 1.0);
#254 = DIRECTION('', (0.0, 1.0));
#255 = SURFACE_CURVE('', #256, (#260, #272), .CURVE_3D.);
#256 = LINE('', #257, #258);
#257 = CARTESIAN_POINT('', (0.0, 0.0, 10.0));
#258 = VECTOR('', #259, 10.0);
#259 = DIRECTION('', (1.0, 0.0, 0.0));
#260 = PCURVE('', #261, #266);
#261 = PLANE('', #262);
#262 = AXIS2_PLACEMENT_3D('', #263, #264, #265);
#263 = CARTESIAN_POINT('', (0.0, 0.0, 0.0));
#264 = DIRECTION('', (0.0, -1.0, 0.0));
#265 = DIRECTION('', (1.0, 0.0, 0.0));
#266 = DEFINITIONAL_REPRESENTATION('', (#268), #267);
#267 = (
    GEOMETRIC_REPRESENTATION_CONTEXT(2)
    PARAMETRIC_REPRESENTATION_CONTEXT()
    REPRESENTATION_CONTEXT('2D SPACE', '')
);
#268 = LINE('', #269, #270);
#269 = CARTESIAN_POINT('', (0.0, 1.0));
#270 = VECTOR('', #271, 1.0);
#271 = DIRECTION('', (1.0, 0.0));
#272 = PCURVE('', #273, #278);
#273 = PLANE('', #274);
#274 = AXIS2_PLACEMENT_3D('', #275, #276, #277);
#275 = CARTESIAN_POINT('', (0.0, 0.0, 10.0));
#276 = DIRECTION('', (0.0, 0.0, 1.0));
#277 = DIRECTION('', (1.0, 0.0, 0.0));
#278 = DEFINITIONAL_REPRESENTATION('', (#280), #279);
#279 = (
    GEOMETRIC_REPRESENTATION_CONTEXT(2)
    PARAMETRIC_REPRESENTATION_CONTEXT()
    REPRESENTATION_CONTEXT('2D SPACE', '')
);
#280 = LINE('', #281, #282);
#281 = CARTESIAN_POINT('', (0.0, 0.0));
#282 = VECTOR('', #283, 1.0);
#283 = DIRECTION('', (1.0, 0.0));
#284 = SURFACE_CURVE('', #285, (#289, #301), .CURVE_3D.);
#285 = LINE('', #286, #287);
#286 = CARTESIAN_POINT('', (0.0, 0.0, 0.0));
#287 = VECTOR('', #288, 10.0);
#288 = DIRECTION('', (0.0, 0.0, 1.0));
#289 = PCURVE('', #290, #295);
#290 = PLANE('', #291);
#291 = AXIS2_PLACEMENT_3D('', #292, #293, #294);
#292 = CARTESIAN_POINT('', (0.0, 0.0, 0.0));
#293 = DIRECTION('', (0.0, -1.0, 0.0));
#294 = DIRECTION('', (1.0, 0.0, 0.0));
#295 = DEFINITIONAL_REPRESENTATION('', (#297), #296);
#296 = (
    GEOMETRIC_REPRESENTATION_CONTEXT(2)
    PARAMETRIC_REPRESENTATION_CONTEXT()
    REPRESENTATION_CONTEXT('2D SPACE', '')
);
#297 = LINE('', #298, #299);
#298 = CARTESIAN_POINT('', (0.0, 0.0));
#299 = VECTOR('', #300, 1.0);
#300 = DIRECTION('', (0.0, 1.0));
#301 = PCURVE('', #302, #307);
#302 = PLANE('', #303);
#303 = AXIS2_PLACEMENT_3D('', #304, #305, #306);
#304 = CARTESIAN_POINT('', (0.0, 0.0, 0.0));
#305 = DIRECTION('', (1.0, 0.0, 0.0));
#306 = DIRECTION('', (0.0, 1.0, 0.0));
#307 = DEFINITIONAL_REPRESENTATION('', (#309), #308);
#308 = (
    GEOMETRIC_REPRESENTATION_CONTEXT(2)
    PARAMETRIC_REPRESENTATION_CONTEXT()
    REPRESENTATION_CONTEXT('2D SPACE', '')
);
#309 = LINE('', #310, #311);
#310 = CARTESIAN_POINT('', (0.0, 0.0));
#311 = VECTOR('', #312, 1.0);
#312 = DIRECTION('', (0.0, 1.0));
#313 = SURFACE_CURVE('', #314, (#318, #330), .CURVE_3D.);
#314 = LINE('', #315, #316);
#315 = CARTESIAN_POINT('', (10.0, 10.0, 0.0));
#316 = VECTOR('', #317, 10.0);
#317 = DIRECTION('', (0.0, 0.0, 1.0));
#318 = PCURVE('', #319, #324);
#319 = PLANE('', #320);
#320 = AXIS2_PLACEMENT_3D('', #321, #322, #323);
#321 = CARTESIAN_POINT('', (10.0, 0.0, 0.0));
#322 = DIRECTION('', (1.0, 0.0, 0.0));
#323 = DIRECTION('', (0.0, 1.0, 0.0));
#324 = DEFINITIONAL_REPRESENTATION('', (#326), #325);
#325 = (
    GEOMETRIC_REPRESENTATION_CONTEXT(2)
    PARAMETRIC_REPRESENTATION_CONTEXT()
    REPRESENTATION_CONTEXT('2D SPACE', '')
);
#326 = LINE('', #327, #328);
#327 = CARTESIAN_POINT('', (1.0, 0.0));
#328 = VECTOR('', #329, 1.0);
#329 = DIRECTION('', (0.0, 1.0));
#330 = PCURVE('', #331, #336);
#331 = PLANE('', #332);
#332 = AXIS2_PLACEMENT_3D('', #333, #334, #335);
#333 = CARTESIAN_POINT('', (0.0, 10.0, 0.0));
#334 = DIRECTION('', (0.0, -1.0, 0.0));
#335 = DIRECTION('', (1.0, 0.0, 0.0));
#336 = DEFINITIONAL_REPRESENTATION('', (#338), #337);
#337 = (
    GEOMETRIC_REPRESENTATION_CONTEXT(2)
    PARAMETRIC_REPRESENTATION_CONTEXT()
    REPRESENTATION_CONTEXT('2D SPACE', '')
);
#338 = LINE('', #339, #340);
#339 = CARTESIAN_POINT('', (1.0, 0.0));
#340 = VECTOR('', #341, 1.0);
#341 = DIRECTION('', (0.0, 1.0));
#342 = SURFACE_CURVE('', #343, (#347, #359), .CURVE_3D.);
#343 = LINE('', #344, #345);
#344 = CARTESIAN_POINT('', (10.0, 0.0, 10.0));
#345 = VECTOR('', #346, 10.0);
#346 = DIRECTION('', (0.0, 1.0, 0.0));
#347 = PCURVE('', #348, #353);
#348 = PLANE('', #349);
#349 = AXIS2_PLACEMENT_3D('', #350, #351, #352);
#350 = CARTESIAN_POINT('', (10.0, 0.0, 0.0));
#351 = DIRECTION('', (1.0, 0.0, 0.0));
#352 = DIRECTION('', (0.0, 1.0, 0.0));
#353 = DEFINITIONAL_REPRESENTATION('', (#355), #354);
#354 = (
    GEOMETRIC_REPRESENTATION_CONTEXT(2)
    PARAMETRIC_REPRESENTATION_CONTEXT()
    REPRESENTATION_CONTEXT('2D SPACE', '')
);
#355 = LINE('', #356, #357);
#356 = CARTESIAN_POINT('', (0.0, 1.0));
#357 = VECTOR('', #358, 1.0);
#358 = DIRECTION('', (1.0, 0.0));
#359 = PCURVE('', #360, #365);
#360 = PLANE('', #361);
#361 = AXIS2_PLACEMENT_3D('', #362, #363, #364);
#362 = CARTESIAN_POINT('', (0.0, 0.0, 10.0));
#363 = DIRECTION('', (0.0, 0.0, 1.0));
#364 = DIRECTION('', (1.0, 0.0, 0.0));
#365 = DEFINITIONAL_REPRESENTATION('', (#367), #366);
#366 = (
    GEOMETRIC_REPRESENTATION_CONTEXT(2)
    PARAMETRIC_REPRESENTATION_CONTEXT()
    REPRESENTATION_CONTEXT('2D SPACE', '')
);
#367 = LINE('', #368, #369);
#368 = CARTESIAN_POINT('', (1.0, 0.0));
#369 = VECTOR('', #370, 1.0);
#370 = DIRECTION('', (0.0, 1.0));
#371 = SURFACE_CURVE('', #372, (#376, #388), .CURVE_3D.);
#372 = LINE('', #373, #374);
#373 = CARTESIAN_POINT('', (0.0, 10.0, 10.0));
#374 = VECTOR('', #375, 10.0);
#375 = DIRECTION('', (1.0, 0.0, 0.0));
#376 = PCURVE('', #377, #382);
#377 = PLANE('', #378);
#378 = AXIS2_PLACEMENT_3D('', #379, #380, #381);
#379 = CARTESIAN_POINT('', (0.0, 10.0, 0.0));
#380 = DIRECTION('', (0.0, -1.0, 0.0));
#381 = DIRECTION('', (1.0, 0.0, 0.0));
#382 = DEFINITIONAL_REPRESENTATION('', (#384), #383);
#383 = (
    GEOMETRIC_REPRESENTATION_CONTEXT(2)
    PARAMETRIC_REPRESENTATION_CONTEXT()
    REPRESENTATION_CONTEXT('2D SPACE', '')
);
#384 = LINE('', #385, #386);
#385 = CARTESIAN_POINT('', (0.0, 1.0));
#386 = VECTOR('', #387, 1.0);
#387 = DIRECTION('', (1.0, 0.0));
#388 = PCURVE('', #389, #394);
#389 = PLANE('', #390);
#390 = AXIS2_PLACEMENT_3D('', #391, #392, #393);
#391 = CARTESIAN_POINT('', (0.0, 0.0, 10.0));
#392 = DIRECTION('', (0.0, 0.0, 1.0));
#393 = DIRECTION('', (1.0, 0.0, 0.0));
#394 = DEFINITIONAL_REPRESENTATION('', (#396), #395);
#395 = (
    GEOMETRIC_REPRESENTATION_CONTEXT(2)
    PARAMETRIC_REPRESENTATION_CONTEXT()
    REPRESENTATION_CONTEXT('2D SPACE', '')
);
#396 = LINE('', #397, #398);
#397 = CARTESIAN_POINT('', (0.0, 1.0));
#398 = VECTOR('', #399, 1.0);
#399 = DIRECTION('', (1.0, 0.0));
#400 = SURFACE_CURVE('', #401, (#405, #417), .CURVE_3D.);
#401 = LINE('', #402, #403);
#402 = CARTESIAN_POINT('', (0.0, 10.0, 0.0));
#403 = VECTOR('', #404, 10.0);
#404 = DIRECTION('', (0.0, 0.0, 1.0));
#405 = PCURVE('', #406, #411);
#406 = PLANE('', #407);
#407 = AXIS2_PLACEMENT_3D('', #408, #409, #410);
#408 = CARTESIAN_POINT('', (0.0, 10.0, 0.0));
#409 = DIRECTION('', (0.0, -1.0, 0.0));
#410 = DIRECTION('', (1.0, 0.0, 0.0));
#411 = DEFINITIONAL_REPRESENTATION('', (#413), #412);
#412 = (
    GEOMETRIC_REPRESENTATION_CONTEXT(2)
    PARAMETRIC_REPRESENTATION_CONTEXT()
    REPRESENTATION_CONTEXT('2D SPACE', '')
);
#413 = LINE('', #414, #415);
#414 = CARTESIAN_POINT('', (0.0, 0.0));
#415 = VECTOR('', #416, 1.0);
#416 = DIRECTION('', (0.0, 1.0));
#417 = PCURVE('', #418, #423);
#418 = PLANE('', #419);
#419 = AXIS2_PLACEMENT_3D('', #420, #421, #422);
#420 = CARTESIAN_POINT('', (0.0, 0.0, 0.0));
#421 = DIRECTION('', (1.0, 0.0, 0.0));
#422 = DIRECTION('', (0.0, 1.0, 0.0));
#423 = DEFINITIONAL_REPRESENTATION('', (#425), #424);
#424 = (
    GEOMETRIC_REPRESENTATION_CONTEXT(2)
    PARAMETRIC_REPRESENTATION_CONTEXT()
    REPRESENTATION_CONTEXT('2D SPACE', '')
);
#425 = LINE('', #426, #427);
#426 = CARTESIAN_POINT('', (1.0, 0.0));
#427 = VECTOR('', #428, 1.0);
#428 = DIRECTION('', (0.0, 1.0));
#429 = SURFACE_CURVE('', #430, (#434, #446), .CURVE_3D.);
#430 = LINE('', #431, #432);
#431 = CARTESIAN_POINT('', (0.0, 0.0, 10.0));
#432 = VECTOR('', #433, 10.0);
#433 = DIRECTION('', (0.0, 1.0, 0.0));
#434 = PCURVE('', #435, #440);
#435 = PLANE('', #436);
#436 = AXIS2_PLACEMENT_3D('', #437, #438, #439);
#437 = CARTESIAN_POINT('', (0.0, 0.0, 0.0));
#438 = DIRECTION('', (1.0, 0.0, 0.0));
#439 = DIRECTION('', (0.0, 1.0, 0.0));
#440 = DEFINITIONAL_REPRESENTATION('', (#442), #441);
#441 = (
    GEOMETRIC_REPRESENTATION_CONTEXT(2)
    PARAMETRIC_REPRESENTATION_CONTEXT()
    REPRESENTATION_CONTEXT('2D SPACE', '')
);
#442 = LINE('', #443, #444);
#443 = CARTESIAN_POINT('', (0.0, 1.0));
#444 = VECTOR('', #445, 1.0);
#445 = DIRECTION('', (1.0, 0.0));
#446 = PCURVE('', #447, #452);
#447 = PLANE('', #448);
#448 = AXIS2_PLACEMENT_3D('', #449, #450, #451);
#449 = CARTESIAN_POINT('', (0.0, 0.0, 10.0));
#450 = DIRECTION('', (0.0, 0.0, 1.0));
#451 = DIRECTION('', (1.0, 0.0, 0.0));
#452 = DEFINITIONAL_REPRESENTATION('', (#454), #453);
#453 = (
    GEOMETRIC_REPRESENTATION_CONTEXT(2)
    PARAMETRIC_REPRESENTATION_CONTEXT()
    REPRESENTATION_CONTEXT('2D SPACE', '')
);
#454 = LINE('', #455, #456);
#455 = CARTESIAN_POINT('', (0.0, 0.0));
#456 = VECTOR('', #457, 1.0);
#457 = DIRECTION('', (0.0, 1.0));
#458 = CARTESIAN_POINT('', (0.0, 0.0, 0.0));
#459 = CARTESIAN_POINT('', (10.0, 0.0, 0.0));
#460 = CARTESIAN_POINT('', (10.0, 10.0, 0.0));
#461 = CARTESIAN_POINT('', (0.0, 10.0, 0.0));
#462 = CARTESIAN_POINT('', (10.0, 0.0, 10.0));
#463 = CARTESIAN_POINT('', (0.0, 0.0, 10.0));
#464 = CARTESIAN_POINT('', (10.0, 10.0, 10.0));
#465 = CARTESIAN_POINT('', (0.0, 10.0, 10.0));
ENDSEC;
END-ISO-10303-21;
